<?xml version="1.0" encoding="UTF-8" standalone="no"?>
<!DOCTYPE svg PUBLIC "-//W3C//DTD SVG 1.1//EN"
 "http://www.w3.org/Graphics/SVG/1.1/DTD/svg11.dtd">
<!-- Generated by graphviz version 2.43.0 (0)
 -->
<!-- Title: /home/kel/MyJob/SensorObserver/Tools/ColorProgressBar.h Pages: 1 -->
<svg width="736pt" height="324pt"
 viewBox="0.00 0.00 735.50 324.00" xmlns="http://www.w3.org/2000/svg" xmlns:xlink="http://www.w3.org/1999/xlink">
<g id="graph0" class="graph" transform="scale(1 1) rotate(0) translate(4 320)">
<title>/home/kel/MyJob/SensorObserver/Tools/ColorProgressBar.h</title>
<!-- Node1 -->
<g id="Node000001" class="node">
<title>Node1</title>
<g id="a_Node000001"><a xlink:title="Простой виджет прогресс‑бара с настраиваемым цветом и диапазоном.">
<polygon fill="#999999" stroke="#666666" points="288,-316 110,-316 110,-286 288,-286 288,-316"/>
<text text-anchor="start" x="118" y="-304" font-family="Helvetica,sans-Serif" font-size="10.00">/home/kel/MyJob/SensorObserver</text>
<text text-anchor="middle" x="199" y="-293" font-family="Helvetica,sans-Serif" font-size="10.00">/Tools/ColorProgressBar.h</text>
</a>
</g>
</g>
<!-- Node2 -->
<g id="Node000002" class="node">
<title>Node2</title>
<g id="a_Node000002"><a xlink:href="ColorProgressBar_8cpp.html" target="_top" xlink:title="Реализация отрисовки ColorProgressBar.">
<polygon fill="white" stroke="#666666" points="178,-250 0,-250 0,-220 178,-220 178,-250"/>
<text text-anchor="start" x="8" y="-238" font-family="Helvetica,sans-Serif" font-size="10.00">/home/kel/MyJob/SensorObserver</text>
<text text-anchor="middle" x="89" y="-227" font-family="Helvetica,sans-Serif" font-size="10.00">/Tools/ColorProgressBar.cpp</text>
</a>
</g>
</g>
<!-- Node1&#45;&gt;Node2 -->
<g id="edge1_Node000001_Node000002" class="edge">
<title>Node1&#45;&gt;Node2</title>
<g id="a_edge1_Node000001_Node000002"><a xlink:title=" ">
<path fill="none" stroke="#63b8ff" d="M165.82,-280.69C148.84,-270.82 128.55,-259.01 113.08,-250.01"/>
<polygon fill="#63b8ff" stroke="#63b8ff" points="164.46,-283.95 174.86,-285.95 167.98,-277.9 164.46,-283.95"/>
</a>
</g>
</g>
<!-- Node3 -->
<g id="Node000003" class="node">
<title>Node3</title>
<g id="a_Node000003"><a xlink:href="DisplayingSensors_8h.html" target="_top" xlink:title="Виджет отображения набора сенсоров для одного фрейма.">
<polygon fill="white" stroke="#666666" points="424,-250 196,-250 196,-220 424,-220 424,-250"/>
<text text-anchor="start" x="204" y="-238" font-family="Helvetica,sans-Serif" font-size="10.00">/home/kel/MyJob/SensorObserver</text>
<text text-anchor="middle" x="310" y="-227" font-family="Helvetica,sans-Serif" font-size="10.00">/Widgets/SensorsTable/DisplayingSensors.h</text>
</a>
</g>
</g>
<!-- Node1&#45;&gt;Node3 -->
<g id="edge2_Node000001_Node000003" class="edge">
<title>Node1&#45;&gt;Node3</title>
<g id="a_edge2_Node000001_Node000003"><a xlink:title=" ">
<path fill="none" stroke="#63b8ff" d="M232.48,-280.69C249.62,-270.82 270.09,-259.01 285.7,-250.01"/>
<polygon fill="#63b8ff" stroke="#63b8ff" points="230.27,-277.93 223.36,-285.95 233.77,-283.99 230.27,-277.93"/>
</a>
</g>
</g>
<!-- Node4 -->
<g id="Node000004" class="node">
<title>Node4</title>
<g id="a_Node000004"><a xlink:href="DisplayingSensors_8cpp.html" target="_top" xlink:title="Реализация отображения сенсоров.">
<polygon fill="white" stroke="#666666" points="312.5,-178.5 73.5,-178.5 73.5,-148.5 312.5,-148.5 312.5,-178.5"/>
<text text-anchor="start" x="81.5" y="-166.5" font-family="Helvetica,sans-Serif" font-size="10.00">/home/kel/MyJob/SensorObserver</text>
<text text-anchor="middle" x="193" y="-155.5" font-family="Helvetica,sans-Serif" font-size="10.00">/Widgets/SensorsTable/DisplayingSensors.cpp</text>
</a>
</g>
</g>
<!-- Node3&#45;&gt;Node4 -->
<g id="edge3_Node000003_Node000004" class="edge">
<title>Node3&#45;&gt;Node4</title>
<g id="a_edge3_Node000003_Node000004"><a xlink:title=" ">
<path fill="none" stroke="#63b8ff" d="M277.55,-214.72C258.23,-203.25 234.16,-188.95 216.64,-178.54"/>
<polygon fill="#63b8ff" stroke="#63b8ff" points="275.94,-217.84 286.32,-219.94 279.51,-211.82 275.94,-217.84"/>
</a>
</g>
</g>
<!-- Node5 -->
<g id="Node000005" class="node">
<title>Node5</title>
<g id="a_Node000005"><a xlink:href="SensorsTableWidget_8h.html" target="_top" xlink:title="Главный виджет таблицы датчиков и панелей настроек.">
<polygon fill="white" stroke="#666666" points="523.5,-184 330.5,-184 330.5,-143 523.5,-143 523.5,-184"/>
<text text-anchor="start" x="338.5" y="-172" font-family="Helvetica,sans-Serif" font-size="10.00">/home/kel/MyJob/SensorObserver</text>
<text text-anchor="start" x="338.5" y="-161" font-family="Helvetica,sans-Serif" font-size="10.00">/Widgets/SensorsTable/SensorsTable</text>
<text text-anchor="middle" x="427" y="-150" font-family="Helvetica,sans-Serif" font-size="10.00">Widget.h</text>
</a>
</g>
</g>
<!-- Node3&#45;&gt;Node5 -->
<g id="edge4_Node000003_Node000005" class="edge">
<title>Node3&#45;&gt;Node5</title>
<g id="a_edge4_Node000003_Node000005"><a xlink:title=" ">
<path fill="none" stroke="#63b8ff" d="M342.69,-214.58C358.72,-205.06 377.98,-193.62 394.05,-184.07"/>
<polygon fill="#63b8ff" stroke="#63b8ff" points="340.49,-211.82 333.68,-219.94 344.06,-217.84 340.49,-211.82"/>
</a>
</g>
</g>
<!-- Node6 -->
<g id="Node000006" class="node">
<title>Node6</title>
<g id="a_Node000006"><a xlink:href="DataReader_8cpp.html" target="_top" xlink:title="Реализация парсинга входящих сообщений телеметрии.">
<polygon fill="white" stroke="#666666" points="320,-101.5 142,-101.5 142,-71.5 320,-71.5 320,-101.5"/>
<text text-anchor="start" x="150" y="-89.5" font-family="Helvetica,sans-Serif" font-size="10.00">/home/kel/MyJob/SensorObserver</text>
<text text-anchor="middle" x="231" y="-78.5" font-family="Helvetica,sans-Serif" font-size="10.00">/Exchange/DataReader.cpp</text>
</a>
</g>
</g>
<!-- Node5&#45;&gt;Node6 -->
<g id="edge5_Node000005_Node000006" class="edge">
<title>Node5&#45;&gt;Node6</title>
<g id="a_edge5_Node000005_Node000006"><a xlink:title=" ">
<path fill="none" stroke="#63b8ff" d="M366.65,-139.41C334.34,-127.05 295.6,-112.22 267.8,-101.58"/>
<polygon fill="#63b8ff" stroke="#63b8ff" points="365.42,-142.69 376.01,-142.99 367.93,-136.15 365.42,-142.69"/>
</a>
</g>
</g>
<!-- Node7 -->
<g id="Node000007" class="node">
<title>Node7</title>
<g id="a_Node000007"><a xlink:href="MainWindow_8h.html" target="_top" xlink:title="Главное окно приложения телеметрии.">
<polygon fill="white" stroke="#666666" points="516,-101.5 338,-101.5 338,-71.5 516,-71.5 516,-101.5"/>
<text text-anchor="start" x="346" y="-89.5" font-family="Helvetica,sans-Serif" font-size="10.00">/home/kel/MyJob/SensorObserver</text>
<text text-anchor="middle" x="427" y="-78.5" font-family="Helvetica,sans-Serif" font-size="10.00">/Widgets/MainWindow.h</text>
</a>
</g>
</g>
<!-- Node5&#45;&gt;Node7 -->
<g id="edge6_Node000005_Node000007" class="edge">
<title>Node5&#45;&gt;Node7</title>
<g id="a_edge6_Node000005_Node000007"><a xlink:title=" ">
<path fill="none" stroke="#63b8ff" d="M427,-132.61C427,-122.01 427,-110.57 427,-101.86"/>
<polygon fill="#63b8ff" stroke="#63b8ff" points="423.5,-132.79 427,-142.79 430.5,-132.79 423.5,-132.79"/>
</a>
</g>
</g>
<!-- Node10 -->
<g id="Node000010" class="node">
<title>Node10</title>
<g id="a_Node000010"><a xlink:href="SensorsTableWidget_8cpp.html" target="_top" xlink:title="Реализация таблицы датчиков и построителя панелей.">
<polygon fill="white" stroke="#666666" points="727.5,-107 534.5,-107 534.5,-66 727.5,-66 727.5,-107"/>
<text text-anchor="start" x="542.5" y="-95" font-family="Helvetica,sans-Serif" font-size="10.00">/home/kel/MyJob/SensorObserver</text>
<text text-anchor="start" x="542.5" y="-84" font-family="Helvetica,sans-Serif" font-size="10.00">/Widgets/SensorsTable/SensorsTable</text>
<text text-anchor="middle" x="631" y="-73" font-family="Helvetica,sans-Serif" font-size="10.00">Widget.cpp</text>
</a>
</g>
</g>
<!-- Node5&#45;&gt;Node10 -->
<g id="edge9_Node000005_Node000010" class="edge">
<title>Node5&#45;&gt;Node10</title>
<g id="a_edge9_Node000005_Node000010"><a xlink:title=" ">
<path fill="none" stroke="#63b8ff" d="M489.45,-139.54C517.72,-129.15 550.79,-116.99 577.85,-107.04"/>
<polygon fill="#63b8ff" stroke="#63b8ff" points="488.24,-136.25 480.07,-142.99 490.66,-142.82 488.24,-136.25"/>
</a>
</g>
</g>
<!-- Node8 -->
<g id="Node000008" class="node">
<title>Node8</title>
<g id="a_Node000008"><a xlink:href="MainWindow_8cpp.html" target="_top" xlink:title="Реализация главного окна: меню, подключение, открытие графиков.">
<polygon fill="white" stroke="#666666" points="418,-30 240,-30 240,0 418,0 418,-30"/>
<text text-anchor="start" x="248" y="-18" font-family="Helvetica,sans-Serif" font-size="10.00">/home/kel/MyJob/SensorObserver</text>
<text text-anchor="middle" x="329" y="-7" font-family="Helvetica,sans-Serif" font-size="10.00">/Widgets/MainWindow.cpp</text>
</a>
</g>
</g>
<!-- Node7&#45;&gt;Node8 -->
<g id="edge7_Node000007_Node000008" class="edge">
<title>Node7&#45;&gt;Node8</title>
<g id="a_edge7_Node000007_Node000008"><a xlink:title=" ">
<path fill="none" stroke="#63b8ff" d="M398.71,-65.44C382.73,-54.1 363.14,-40.21 348.8,-30.04"/>
<polygon fill="#63b8ff" stroke="#63b8ff" points="396.99,-68.51 407.17,-71.44 401.04,-62.8 396.99,-68.51"/>
</a>
</g>
</g>
<!-- Node9 -->
<g id="Node000009" class="node">
<title>Node9</title>
<g id="a_Node000009"><a xlink:href="main_8cpp.html" target="_top" xlink:title="Точка входа в приложение Qt (SensorObserver).">
<polygon fill="white" stroke="#666666" points="614,-30 436,-30 436,0 614,0 614,-30"/>
<text text-anchor="start" x="444" y="-18" font-family="Helvetica,sans-Serif" font-size="10.00">/home/kel/MyJob/SensorObserver</text>
<text text-anchor="middle" x="525" y="-7" font-family="Helvetica,sans-Serif" font-size="10.00">/main.cpp</text>
</a>
</g>
</g>
<!-- Node7&#45;&gt;Node9 -->
<g id="edge8_Node000007_Node000009" class="edge">
<title>Node7&#45;&gt;Node9</title>
<g id="a_edge8_Node000007_Node000009"><a xlink:title=" ">
<path fill="none" stroke="#63b8ff" d="M455.29,-65.44C471.27,-54.1 490.86,-40.21 505.2,-30.04"/>
<polygon fill="#63b8ff" stroke="#63b8ff" points="452.96,-62.8 446.83,-71.44 457.01,-68.51 452.96,-62.8"/>
</a>
</g>
</g>
</g>
</svg>
