<?xml version="1.0" encoding="UTF-8" standalone="no"?>
<!DOCTYPE svg PUBLIC "-//W3C//DTD SVG 1.1//EN"
 "http://www.w3.org/Graphics/SVG/1.1/DTD/svg11.dtd">
<!-- Generated by graphviz version 2.43.0 (0)
 -->
<!-- Title: /home/kel/MyJob/SensorObserver/Widgets/SensorsTable/DetailingLimitsWidget.h Pages: 1 -->
<svg width="418pt" height="126pt"
 viewBox="0.00 0.00 417.50 126.00" xmlns="http://www.w3.org/2000/svg" xmlns:xlink="http://www.w3.org/1999/xlink">
<g id="graph0" class="graph" transform="scale(1 1) rotate(0) translate(4 122)">
<title>/home/kel/MyJob/SensorObserver/Widgets/SensorsTable/DetailingLimitsWidget.h</title>
<!-- Node1 -->
<g id="Node000001" class="node">
<title>Node1</title>
<g id="a_Node000001"><a xlink:title="Детальная настройка порогов/цветов для одного сенсора.">
<polygon fill="#999999" stroke="#666666" points="310,-118 107,-118 107,-77 310,-77 310,-118"/>
<text text-anchor="start" x="115" y="-106" font-family="Helvetica,sans-Serif" font-size="10.00">/home/kel/MyJob/SensorObserver</text>
<text text-anchor="start" x="115" y="-95" font-family="Helvetica,sans-Serif" font-size="10.00">/Widgets/SensorsTable/DetailingLimits</text>
<text text-anchor="middle" x="208.5" y="-84" font-family="Helvetica,sans-Serif" font-size="10.00">Widget.h</text>
</a>
</g>
</g>
<!-- Node2 -->
<g id="Node000002" class="node">
<title>Node2</title>
<g id="a_Node000002"><a xlink:href="DetailingLimitsWidget_8cpp.html" target="_top" xlink:title="Реализация детальной настройки лимитов.">
<polygon fill="white" stroke="#666666" points="203,-41 0,-41 0,0 203,0 203,-41"/>
<text text-anchor="start" x="8" y="-29" font-family="Helvetica,sans-Serif" font-size="10.00">/home/kel/MyJob/SensorObserver</text>
<text text-anchor="start" x="8" y="-18" font-family="Helvetica,sans-Serif" font-size="10.00">/Widgets/SensorsTable/DetailingLimits</text>
<text text-anchor="middle" x="101.5" y="-7" font-family="Helvetica,sans-Serif" font-size="10.00">Widget.cpp</text>
</a>
</g>
</g>
<!-- Node1&#45;&gt;Node2 -->
<g id="edge1_Node000001_Node000002" class="edge">
<title>Node1&#45;&gt;Node2</title>
<g id="a_edge1_Node000001_Node000002"><a xlink:title=" ">
<path fill="none" stroke="#63b8ff" d="M172.25,-71.09C158.31,-61.32 142.62,-50.32 129.57,-41.17"/>
<polygon fill="#63b8ff" stroke="#63b8ff" points="170.47,-74.12 180.67,-76.99 174.49,-68.38 170.47,-74.12"/>
</a>
</g>
</g>
<!-- Node3 -->
<g id="Node000003" class="node">
<title>Node3</title>
<g id="a_Node000003"><a xlink:href="ListOfLimitsWidget_8cpp.html" target="_top" xlink:title="Реализация списка лимитов.">
<polygon fill="white" stroke="#666666" points="409.5,-41 221.5,-41 221.5,0 409.5,0 409.5,-41"/>
<text text-anchor="start" x="229.5" y="-29" font-family="Helvetica,sans-Serif" font-size="10.00">/home/kel/MyJob/SensorObserver</text>
<text text-anchor="start" x="229.5" y="-18" font-family="Helvetica,sans-Serif" font-size="10.00">/Widgets/SensorsTable/ListOfLimits</text>
<text text-anchor="middle" x="315.5" y="-7" font-family="Helvetica,sans-Serif" font-size="10.00">Widget.cpp</text>
</a>
</g>
</g>
<!-- Node1&#45;&gt;Node3 -->
<g id="edge2_Node000001_Node000003" class="edge">
<title>Node1&#45;&gt;Node3</title>
<g id="a_edge2_Node000001_Node000003"><a xlink:title=" ">
<path fill="none" stroke="#63b8ff" d="M244.75,-71.09C258.69,-61.32 274.38,-50.32 287.43,-41.17"/>
<polygon fill="#63b8ff" stroke="#63b8ff" points="242.51,-68.38 236.33,-76.99 246.53,-74.12 242.51,-68.38"/>
</a>
</g>
</g>
</g>
</svg>
