<?xml version="1.0" encoding="UTF-8" standalone="no"?>
<!DOCTYPE svg PUBLIC "-//W3C//DTD SVG 1.1//EN"
 "http://www.w3.org/Graphics/SVG/1.1/DTD/svg11.dtd">
<!-- Generated by graphviz version 2.43.0 (0)
 -->
<!-- Title: /home/kel/MyJob/SensorObserver/Data/Frames/Containers/EngineSensors/EngineSensors.h Pages: 1 -->
<svg width="670pt" height="126pt"
 viewBox="0.00 0.00 670.00 126.00" xmlns="http://www.w3.org/2000/svg" xmlns:xlink="http://www.w3.org/1999/xlink">
<g id="graph0" class="graph" transform="scale(1 1) rotate(0) translate(4 122)">
<title>/home/kel/MyJob/SensorObserver/Data/Frames/Containers/EngineSensors/EngineSensors.h</title>
<!-- Node1 -->
<g id="Node000001" class="node">
<title>Node1</title>
<g id="a_Node000001"><a xlink:title="Интерфейс фрейма датчиков двигателя.">
<polygon fill="#999999" stroke="#666666" points="454,-118 242,-118 242,-77 454,-77 454,-118"/>
<text text-anchor="start" x="250" y="-106" font-family="Helvetica,sans-Serif" font-size="10.00">/home/kel/MyJob/SensorObserver</text>
<text text-anchor="start" x="250" y="-95" font-family="Helvetica,sans-Serif" font-size="10.00">/Data/Frames/Containers/EngineSensors</text>
<text text-anchor="middle" x="348" y="-84" font-family="Helvetica,sans-Serif" font-size="10.00">/EngineSensors.h</text>
</a>
</g>
</g>
<!-- Node2 -->
<g id="Node000002" class="node">
<title>Node2</title>
<g id="a_Node000002"><a xlink:href="EngineSensors_8cpp.html" target="_top" xlink:title="Реализация парсера фрейма датчиков двигателя.">
<polygon fill="white" stroke="#666666" points="212,-41 0,-41 0,0 212,0 212,-41"/>
<text text-anchor="start" x="8" y="-29" font-family="Helvetica,sans-Serif" font-size="10.00">/home/kel/MyJob/SensorObserver</text>
<text text-anchor="start" x="8" y="-18" font-family="Helvetica,sans-Serif" font-size="10.00">/Data/Frames/Containers/EngineSensors</text>
<text text-anchor="middle" x="106" y="-7" font-family="Helvetica,sans-Serif" font-size="10.00">/EngineSensors.cpp</text>
</a>
</g>
</g>
<!-- Node1&#45;&gt;Node2 -->
<g id="edge1_Node000001_Node000002" class="edge">
<title>Node1&#45;&gt;Node2</title>
<g id="a_edge1_Node000001_Node000002"><a xlink:title=" ">
<path fill="none" stroke="#63b8ff" d="M275.22,-73.94C241.4,-63.46 201.57,-51.12 169.06,-41.04"/>
<polygon fill="#63b8ff" stroke="#63b8ff" points="274.46,-77.37 285.05,-76.99 276.53,-70.69 274.46,-77.37"/>
</a>
</g>
</g>
<!-- Node3 -->
<g id="Node000003" class="node">
<title>Node3</title>
<g id="a_Node000003"><a xlink:href="SensorsFrames_8cpp.html" target="_top" xlink:title="Реализация реестра фреймов сенсоров.">
<polygon fill="white" stroke="#666666" points="465.5,-35.5 230.5,-35.5 230.5,-5.5 465.5,-5.5 465.5,-35.5"/>
<text text-anchor="start" x="238.5" y="-23.5" font-family="Helvetica,sans-Serif" font-size="10.00">/home/kel/MyJob/SensorObserver</text>
<text text-anchor="middle" x="348" y="-12.5" font-family="Helvetica,sans-Serif" font-size="10.00">/Data/Frames/Containers/SensorsFrames.cpp</text>
</a>
</g>
</g>
<!-- Node1&#45;&gt;Node3 -->
<g id="edge2_Node000001_Node000003" class="edge">
<title>Node1&#45;&gt;Node3</title>
<g id="a_edge2_Node000001_Node000003"><a xlink:title=" ">
<path fill="none" stroke="#63b8ff" d="M348,-66.61C348,-56.01 348,-44.57 348,-35.86"/>
<polygon fill="#63b8ff" stroke="#63b8ff" points="344.5,-66.79 348,-76.79 351.5,-66.79 344.5,-66.79"/>
</a>
</g>
</g>
<!-- Node4 -->
<g id="Node000004" class="node">
<title>Node4</title>
<g id="a_Node000004"><a xlink:href="SaveToCSV_8cpp.html" target="_top" xlink:title="Реализация UnifiedCsvWriter: очередь, форматирование строк, сброс на диск.">
<polygon fill="white" stroke="#666666" points="662,-35.5 484,-35.5 484,-5.5 662,-5.5 662,-35.5"/>
<text text-anchor="start" x="492" y="-23.5" font-family="Helvetica,sans-Serif" font-size="10.00">/home/kel/MyJob/SensorObserver</text>
<text text-anchor="middle" x="573" y="-12.5" font-family="Helvetica,sans-Serif" font-size="10.00">/Tools/SaveToCSV.cpp</text>
</a>
</g>
</g>
<!-- Node1&#45;&gt;Node4 -->
<g id="edge3_Node000001_Node000004" class="edge">
<title>Node1&#45;&gt;Node4</title>
<g id="a_edge3_Node000001_Node000004"><a xlink:title=" ">
<path fill="none" stroke="#63b8ff" d="M416.32,-73.73C453.6,-61.3 498.57,-46.31 530.75,-35.58"/>
<polygon fill="#63b8ff" stroke="#63b8ff" points="414.91,-70.51 406.53,-76.99 417.12,-77.15 414.91,-70.51"/>
</a>
</g>
</g>
</g>
</svg>
