<?xml version="1.0" encoding="UTF-8" standalone="no"?>
<!DOCTYPE svg PUBLIC "-//W3C//DTD SVG 1.1//EN"
 "http://www.w3.org/Graphics/SVG/1.1/DTD/svg11.dtd">
<!-- Generated by graphviz version 2.43.0 (0)
 -->
<!-- Title: Иерархия классов. Графический вид. Pages: 1 -->
<svg width="203pt" height="101pt"
 viewBox="0.00 0.00 203.00 101.00" xmlns="http://www.w3.org/2000/svg" xmlns:xlink="http://www.w3.org/1999/xlink">
<g id="graph0" class="graph" transform="scale(1 1) rotate(0) translate(4 97)">
<title>Иерархия классов. Графический вид.</title>
<!-- Node0 -->
<g id="Node000000" class="node">
<title>Node0</title>
<g id="a_Node000000"><a xlink:title=" ">
<polygon fill="#e0e0e0" stroke="#999999" points="56,-56 0,-56 0,-37 56,-37 56,-56"/>
<text text-anchor="middle" x="28" y="-44" font-family="Helvetica,sans-Serif" font-size="10.00">QObject</text>
</a>
</g>
</g>
<!-- Node1 -->
<g id="Node000001" class="node">
<title>Node1</title>
<g id="a_Node000001"><a xlink:href="classClient.html" target="_top" xlink:title=" ">
<polygon fill="white" stroke="#666666" points="166,-93 121,-93 121,-74 166,-74 166,-93"/>
<text text-anchor="middle" x="143.5" y="-81" font-family="Helvetica,sans-Serif" font-size="10.00">Client</text>
</a>
</g>
</g>
<!-- Node0&#45;&gt;Node1 -->
<g id="edge15_Node000000_Node000001" class="edge">
<title>Node0&#45;&gt;Node1</title>
<g id="a_edge15_Node000000_Node000001"><a xlink:title=" ">
<path fill="none" stroke="#63b8ff" d="M65.9,-58.53C84.07,-64.45 105.34,-71.38 120.85,-76.44"/>
<polygon fill="#63b8ff" stroke="#63b8ff" points="66.78,-55.13 56.19,-55.36 64.61,-61.79 66.78,-55.13"/>
</a>
</g>
</g>
<!-- Node2 -->
<g id="Node000002" class="node">
<title>Node2</title>
<g id="a_Node000002"><a xlink:href="classDataReader.html" target="_top" xlink:title="Получает бинарные сообщения от Client и транслирует их в виджеты.">
<polygon fill="white" stroke="#666666" points="180.5,-56 106.5,-56 106.5,-37 180.5,-37 180.5,-56"/>
<text text-anchor="middle" x="143.5" y="-44" font-family="Helvetica,sans-Serif" font-size="10.00">DataReader</text>
</a>
</g>
</g>
<!-- Node0&#45;&gt;Node2 -->
<g id="edge16_Node000000_Node000002" class="edge">
<title>Node0&#45;&gt;Node2</title>
<g id="a_edge16_Node000000_Node000002"><a xlink:title=" ">
<path fill="none" stroke="#63b8ff" d="M66.48,-46.5C79.22,-46.5 93.43,-46.5 106.09,-46.5"/>
<polygon fill="#63b8ff" stroke="#63b8ff" points="66.19,-43 56.19,-46.5 66.19,-50 66.19,-43"/>
</a>
</g>
</g>
<!-- Node3 -->
<g id="Node000003" class="node">
<title>Node3</title>
<g id="a_Node000003"><a xlink:href="classValueIncrementer.html" target="_top" xlink:title="Плавно увеличивает значение от m_min до m_max за заданное время.">
<polygon fill="white" stroke="#666666" points="195,-19 92,-19 92,0 195,0 195,-19"/>
<text text-anchor="middle" x="143.5" y="-7" font-family="Helvetica,sans-Serif" font-size="10.00">ValueIncrementer</text>
</a>
</g>
</g>
<!-- Node0&#45;&gt;Node3 -->
<g id="edge17_Node000000_Node000003" class="edge">
<title>Node0&#45;&gt;Node3</title>
<g id="a_edge17_Node000000_Node000003"><a xlink:title=" ">
<path fill="none" stroke="#63b8ff" d="M65.88,-34.48C81.2,-29.48 98.73,-23.77 113.15,-19.07"/>
<polygon fill="#63b8ff" stroke="#63b8ff" points="64.61,-31.21 56.19,-37.64 66.78,-37.87 64.61,-31.21"/>
</a>
</g>
</g>
</g>
</svg>
