<?xml version="1.0" encoding="UTF-8" standalone="no"?>
<!DOCTYPE svg PUBLIC "-//W3C//DTD SVG 1.1//EN"
 "http://www.w3.org/Graphics/SVG/1.1/DTD/svg11.dtd">
<!-- Generated by graphviz version 2.43.0 (0)
 -->
<!-- Title: Иерархия классов. Графический вид. Pages: 1 -->
<svg width="264pt" height="212pt"
 viewBox="0.00 0.00 264.00 212.00" xmlns="http://www.w3.org/2000/svg" xmlns:xlink="http://www.w3.org/1999/xlink">
<g id="graph0" class="graph" transform="scale(1 1) rotate(0) translate(4 208)">
<title>Иерархия классов. Графический вид.</title>
<!-- Node0 -->
<g id="Node000000" class="node">
<title>Node0</title>
<g id="a_Node000000"><a xlink:href="structBaseFrame.html" target="_top" xlink:title=" ">
<polygon fill="white" stroke="#666666" points="71,-111 0,-111 0,-92 71,-92 71,-111"/>
<text text-anchor="middle" x="35.5" y="-99" font-family="Helvetica,sans-Serif" font-size="10.00">BaseFrame</text>
</a>
</g>
</g>
<!-- Node1 -->
<g id="Node000001" class="node">
<title>Node1</title>
<g id="a_Node000001"><a xlink:href="structEngineSensorsData.html" target="_top" xlink:title=" ">
<polygon fill="white" stroke="#666666" points="237,-204 126,-204 126,-185 237,-185 237,-204"/>
<text text-anchor="middle" x="181.5" y="-192" font-family="Helvetica,sans-Serif" font-size="10.00">EngineSensorsData</text>
</a>
</g>
</g>
<!-- Node0&#45;&gt;Node1 -->
<g id="edge1_Node000000_Node000001" class="edge">
<title>Node0&#45;&gt;Node1</title>
<g id="a_edge1_Node000000_Node000001"><a xlink:title=" ">
<path fill="none" stroke="#63b8ff" d="M48.92,-119.87C61.53,-137.11 82.65,-162.29 107,-176.5 112.9,-179.94 119.44,-182.73 126.11,-184.99"/>
<polygon fill="#63b8ff" stroke="#63b8ff" points="51.44,-117.38 42.81,-111.24 45.73,-121.42 51.44,-117.38"/>
</a>
</g>
</g>
<!-- Node2 -->
<g id="Node000002" class="node">
<title>Node2</title>
<g id="a_Node000002"><a xlink:href="structEscSensors_1_1EscStatusInfo1.html" target="_top" xlink:title=" ">
<polygon fill="white" stroke="#666666" points="256,-167 107,-167 107,-148 256,-148 256,-167"/>
<text text-anchor="middle" x="181.5" y="-155" font-family="Helvetica,sans-Serif" font-size="10.00">EscSensors::EscStatusInfo1</text>
</a>
</g>
</g>
<!-- Node0&#45;&gt;Node2 -->
<g id="edge2_Node000000_Node000002" class="edge">
<title>Node0&#45;&gt;Node2</title>
<g id="a_edge2_Node000000_Node000002"><a xlink:title=" ">
<path fill="none" stroke="#63b8ff" d="M60.59,-116.47C73.89,-124.21 90.92,-133.31 107,-139.5 115.46,-142.75 124.7,-145.56 133.68,-147.93"/>
<polygon fill="#63b8ff" stroke="#63b8ff" points="62.02,-113.24 51.64,-111.13 58.44,-119.26 62.02,-113.24"/>
</a>
</g>
</g>
<!-- Node3 -->
<g id="Node000003" class="node">
<title>Node3</title>
<g id="a_Node000003"><a xlink:href="structEscSensors_1_1EscStatusInfo2.html" target="_top" xlink:title=" ">
<polygon fill="white" stroke="#666666" points="256,-130 107,-130 107,-111 256,-111 256,-130"/>
<text text-anchor="middle" x="181.5" y="-118" font-family="Helvetica,sans-Serif" font-size="10.00">EscSensors::EscStatusInfo2</text>
</a>
</g>
</g>
<!-- Node0&#45;&gt;Node3 -->
<g id="edge3_Node000000_Node000003" class="edge">
<title>Node0&#45;&gt;Node3</title>
<g id="a_edge3_Node000000_Node000003"><a xlink:title=" ">
<path fill="none" stroke="#63b8ff" d="M81.48,-107.43C90.05,-108.57 99.22,-109.78 108.4,-110.99"/>
<polygon fill="#63b8ff" stroke="#63b8ff" points="81.73,-103.94 71.36,-106.1 80.81,-110.88 81.73,-103.94"/>
</a>
</g>
</g>
<!-- Node4 -->
<g id="Node000004" class="node">
<title>Node4</title>
<g id="a_Node000004"><a xlink:href="structEscSensors_1_1EscStatusInfo3.html" target="_top" xlink:title=" ">
<polygon fill="white" stroke="#666666" points="256,-93 107,-93 107,-74 256,-74 256,-93"/>
<text text-anchor="middle" x="181.5" y="-81" font-family="Helvetica,sans-Serif" font-size="10.00">EscSensors::EscStatusInfo3</text>
</a>
</g>
</g>
<!-- Node0&#45;&gt;Node4 -->
<g id="edge4_Node000000_Node000004" class="edge">
<title>Node0&#45;&gt;Node4</title>
<g id="a_edge4_Node000000_Node000004"><a xlink:title=" ">
<path fill="none" stroke="#63b8ff" d="M81.36,-95.89C89.52,-94.87 98.23,-93.78 106.96,-92.69"/>
<polygon fill="#63b8ff" stroke="#63b8ff" points="80.85,-92.43 71.36,-97.14 81.72,-99.38 80.85,-92.43"/>
</a>
</g>
</g>
<!-- Node5 -->
<g id="Node000005" class="node">
<title>Node5</title>
<g id="a_Node000005"><a xlink:href="structOtherSensorsData.html" target="_top" xlink:title=" ">
<polygon fill="white" stroke="#666666" points="234,-56 129,-56 129,-37 234,-37 234,-56"/>
<text text-anchor="middle" x="181.5" y="-44" font-family="Helvetica,sans-Serif" font-size="10.00">OtherSensorsData</text>
</a>
</g>
</g>
<!-- Node0&#45;&gt;Node5 -->
<g id="edge5_Node000000_Node000005" class="edge">
<title>Node0&#45;&gt;Node5</title>
<g id="a_edge5_Node000000_Node000005"><a xlink:title=" ">
<path fill="none" stroke="#63b8ff" d="M61.76,-86.89C74.93,-79.72 91.49,-71.38 107,-65.5 116.49,-61.9 126.92,-58.75 136.87,-56.1"/>
<polygon fill="#63b8ff" stroke="#63b8ff" points="59.88,-83.94 52.84,-91.86 63.28,-90.05 59.88,-83.94"/>
</a>
</g>
</g>
<!-- Node6 -->
<g id="Node000006" class="node">
<title>Node6</title>
<g id="a_Node000006"><a xlink:href="structVoltageRegulatorsData.html" target="_top" xlink:title=" ">
<polygon fill="white" stroke="#666666" points="246,-19 117,-19 117,0 246,0 246,-19"/>
<text text-anchor="middle" x="181.5" y="-7" font-family="Helvetica,sans-Serif" font-size="10.00">VoltageRegulatorsData</text>
</a>
</g>
</g>
<!-- Node0&#45;&gt;Node6 -->
<g id="edge6_Node000000_Node000006" class="edge">
<title>Node0&#45;&gt;Node6</title>
<g id="a_edge6_Node000000_Node000006"><a xlink:title=" ">
<path fill="none" stroke="#63b8ff" d="M49.27,-83.42C62.02,-66.71 83.11,-42.43 107,-28.5 113.6,-24.65 120.99,-21.57 128.46,-19.11"/>
<polygon fill="#63b8ff" stroke="#63b8ff" points="46.2,-81.69 43.08,-91.81 51.83,-85.84 46.2,-81.69"/>
</a>
</g>
</g>
</g>
</svg>
