<?xml version="1.0" encoding="UTF-8" standalone="no"?>
<!DOCTYPE svg PUBLIC "-//W3C//DTD SVG 1.1//EN"
 "http://www.w3.org/Graphics/SVG/1.1/DTD/svg11.dtd">
<!-- Generated by graphviz version 2.43.0 (0)
 -->
<!-- Title: /home/kel/MyJob/SensorObserver/Widgets/SensorsTable/ListOfLimitsWidget.cpp Pages: 1 -->
<svg width="456pt" height="225pt"
 viewBox="0.00 0.00 456.00 225.00" xmlns="http://www.w3.org/2000/svg" xmlns:xlink="http://www.w3.org/1999/xlink">
<g id="graph0" class="graph" transform="scale(1 1) rotate(0) translate(4 221)">
<title>/home/kel/MyJob/SensorObserver/Widgets/SensorsTable/ListOfLimitsWidget.cpp</title>
<!-- Node1 -->
<g id="Node000001" class="node">
<title>Node1</title>
<g id="a_Node000001"><a xlink:title="Реализация списка лимитов.">
<polygon fill="#999999" stroke="#666666" points="369,-217 181,-217 181,-176 369,-176 369,-217"/>
<text text-anchor="start" x="189" y="-205" font-family="Helvetica,sans-Serif" font-size="10.00">/home/kel/MyJob/SensorObserver</text>
<text text-anchor="start" x="189" y="-194" font-family="Helvetica,sans-Serif" font-size="10.00">/Widgets/SensorsTable/ListOfLimits</text>
<text text-anchor="middle" x="275" y="-183" font-family="Helvetica,sans-Serif" font-size="10.00">Widget.cpp</text>
</a>
</g>
</g>
<!-- Node2 -->
<g id="Node000002" class="node">
<title>Node2</title>
<g id="a_Node000002"><a xlink:href="ListOfLimitsWidget_8h.html" target="_top" xlink:title="Список лимитов сенсора (краткий вид).">
<polygon fill="white" stroke="#666666" points="126.5,-140 7.5,-140 7.5,-121 126.5,-121 126.5,-140"/>
<text text-anchor="middle" x="67" y="-128" font-family="Helvetica,sans-Serif" font-size="10.00">ListOfLimitsWidget.h</text>
</a>
</g>
</g>
<!-- Node1&#45;&gt;Node2 -->
<g id="edge1_Node000001_Node000002" class="edge">
<title>Node1&#45;&gt;Node2</title>
<g id="a_edge1_Node000001_Node000002"><a xlink:title=" ">
<path fill="none" stroke="#63b8ff" d="M211.46,-175.95C176.36,-165.15 133.98,-152.11 104.23,-142.95"/>
<polygon fill="#63b8ff" stroke="#63b8ff" points="105.24,-139.6 94.65,-140.01 103.18,-146.29 105.24,-139.6"/>
</a>
</g>
</g>
<!-- Node6 -->
<g id="Node000006" class="node">
<title>Node6</title>
<g id="a_Node000006"><a xlink:href="CollapsibleGroupBox_8h.html" target="_top" xlink:title="Сворачиваемая группа (header + содержимое).">
<polygon fill="white" stroke="#666666" points="299.5,-140 144.5,-140 144.5,-121 299.5,-121 299.5,-140"/>
<text text-anchor="middle" x="222" y="-128" font-family="Helvetica,sans-Serif" font-size="10.00">Tools/CollapsibleGroupBox.h</text>
</a>
</g>
</g>
<!-- Node1&#45;&gt;Node6 -->
<g id="edge5_Node000001_Node000006" class="edge">
<title>Node1&#45;&gt;Node6</title>
<g id="a_edge5_Node000001_Node000006"><a xlink:title=" ">
<path fill="none" stroke="#63b8ff" d="M258.81,-175.95C251.41,-167.02 242.75,-156.55 235.68,-148.02"/>
<polygon fill="#63b8ff" stroke="#63b8ff" points="238.33,-145.73 229.25,-140.26 232.94,-150.19 238.33,-145.73"/>
</a>
</g>
</g>
<!-- Node7 -->
<g id="Node000007" class="node">
<title>Node7</title>
<g id="a_Node000007"><a xlink:href="SensorSettingsManager_8h.html" target="_top" xlink:title="Сохранение/загрузка настроек сенсоров.">
<polygon fill="white" stroke="#666666" points="295.5,-85 152.5,-85 152.5,-55 295.5,-55 295.5,-85"/>
<text text-anchor="start" x="160.5" y="-73" font-family="Helvetica,sans-Serif" font-size="10.00">Data/Frames/Containers</text>
<text text-anchor="middle" x="224" y="-62" font-family="Helvetica,sans-Serif" font-size="10.00">/SensorSettingsManager.h</text>
</a>
</g>
</g>
<!-- Node1&#45;&gt;Node7 -->
<g id="edge6_Node000001_Node000007" class="edge">
<title>Node1&#45;&gt;Node7</title>
<g id="a_edge6_Node000001_Node000007"><a xlink:title=" ">
<path fill="none" stroke="#63b8ff" d="M294.41,-175.72C306.97,-160.42 319.23,-138.89 309,-121 301.26,-107.47 288.27,-97.24 274.75,-89.67"/>
<polygon fill="#63b8ff" stroke="#63b8ff" points="276.33,-86.55 265.84,-85.07 273.12,-92.77 276.33,-86.55"/>
</a>
</g>
</g>
<!-- Node8 -->
<g id="Node000008" class="node">
<title>Node8</title>
<g id="a_Node000008"><a xlink:href="DetailingLimitsWidget_8h.html" target="_top" xlink:title="Детальная настройка порогов/цветов для одного сенсора.">
<polygon fill="white" stroke="#666666" points="448,-79.5 314,-79.5 314,-60.5 448,-60.5 448,-79.5"/>
<text text-anchor="middle" x="381" y="-67.5" font-family="Helvetica,sans-Serif" font-size="10.00">DetailingLimitsWidget.h</text>
</a>
</g>
</g>
<!-- Node1&#45;&gt;Node8 -->
<g id="edge8_Node000001_Node000008" class="edge">
<title>Node1&#45;&gt;Node8</title>
<g id="a_edge8_Node000001_Node000008"><a xlink:title=" ">
<path fill="none" stroke="#63b8ff" d="M292.62,-175.86C302.02,-165.3 313.73,-152.02 324,-140 339.21,-122.19 356.27,-101.44 367.73,-87.38"/>
<polygon fill="#63b8ff" stroke="#63b8ff" points="370.48,-89.54 374.07,-79.57 365.04,-85.12 370.48,-89.54"/>
</a>
</g>
</g>
<!-- Node3 -->
<g id="Node000003" class="node">
<title>Node3</title>
<g id="a_Node000003"><a xlink:href="Base_8h.html" target="_top" xlink:title="Базовый интерфейс протокола фрейма.">
<polygon fill="white" stroke="#666666" points="134,-85 0,-85 0,-55 134,-55 134,-85"/>
<text text-anchor="start" x="8" y="-73" font-family="Helvetica,sans-Serif" font-size="10.00">Data/Frames/Containers</text>
<text text-anchor="middle" x="67" y="-62" font-family="Helvetica,sans-Serif" font-size="10.00">/Base.h</text>
</a>
</g>
</g>
<!-- Node2&#45;&gt;Node3 -->
<g id="edge2_Node000002_Node000003" class="edge">
<title>Node2&#45;&gt;Node3</title>
<g id="a_edge2_Node000002_Node000003"><a xlink:title=" ">
<path fill="none" stroke="#63b8ff" d="M67,-120.87C67,-114.11 67,-104.35 67,-95.26"/>
<polygon fill="#63b8ff" stroke="#63b8ff" points="70.5,-95.11 67,-85.11 63.5,-95.11 70.5,-95.11"/>
</a>
</g>
</g>
<!-- Node4 -->
<g id="Node000004" class="node">
<title>Node4</title>
<g id="a_Node000004"><a xlink:href="Sensors_8h.html" target="_top" xlink:title="Структуры описания сенсора: пределы, раскраска, настройки и данные.">
<polygon fill="white" stroke="#666666" points="256,-19 192,-19 192,0 256,0 256,-19"/>
<text text-anchor="middle" x="224" y="-7" font-family="Helvetica,sans-Serif" font-size="10.00">Sensors.h</text>
</a>
</g>
</g>
<!-- Node3&#45;&gt;Node4 -->
<g id="edge3_Node000003_Node000004" class="edge">
<title>Node3&#45;&gt;Node4</title>
<g id="a_edge3_Node000003_Node000004"><a xlink:title=" ">
<path fill="none" stroke="#63b8ff" d="M104.61,-54.99C131.03,-45.14 166.04,-32.1 191.31,-22.68"/>
<polygon fill="#63b8ff" stroke="#63b8ff" points="192.67,-25.91 200.81,-19.14 190.22,-19.35 192.67,-25.91"/>
</a>
</g>
</g>
<!-- Node5 -->
<g id="Node000005" class="node">
<title>Node5</title>
<g id="a_Node000005"><a xlink:href="CommonTypes_8h.html" target="_top" xlink:title="Общие типы&#45;алиасы имён сенсоров и кадров.">
<polygon fill="white" stroke="#666666" points="129,-19 5,-19 5,0 129,0 129,-19"/>
<text text-anchor="middle" x="67" y="-7" font-family="Helvetica,sans-Serif" font-size="10.00">Data/CommonTypes.h</text>
</a>
</g>
</g>
<!-- Node3&#45;&gt;Node5 -->
<g id="edge4_Node000003_Node000005" class="edge">
<title>Node3&#45;&gt;Node5</title>
<g id="a_edge4_Node000003_Node000005"><a xlink:title=" ">
<path fill="none" stroke="#63b8ff" d="M67,-54.84C67,-47.21 67,-37.7 67,-29.45"/>
<polygon fill="#63b8ff" stroke="#63b8ff" points="70.5,-29.27 67,-19.27 63.5,-29.27 70.5,-29.27"/>
</a>
</g>
</g>
<!-- Node7&#45;&gt;Node4 -->
<g id="edge7_Node000007_Node000004" class="edge">
<title>Node7&#45;&gt;Node4</title>
<g id="a_edge7_Node000007_Node000004"><a xlink:title=" ">
<path fill="none" stroke="#63b8ff" d="M224,-54.84C224,-47.21 224,-37.7 224,-29.45"/>
<polygon fill="#63b8ff" stroke="#63b8ff" points="227.5,-29.27 224,-19.27 220.5,-29.27 227.5,-29.27"/>
</a>
</g>
</g>
<!-- Node8&#45;&gt;Node4 -->
<g id="edge9_Node000008_Node000004" class="edge">
<title>Node8&#45;&gt;Node4</title>
<g id="a_edge9_Node000008_Node000004"><a xlink:title=" ">
<path fill="none" stroke="#63b8ff" d="M358.17,-60.49C331.43,-50.53 286.92,-33.95 256.56,-22.63"/>
<polygon fill="#63b8ff" stroke="#63b8ff" points="257.45,-19.23 246.86,-19.02 255.01,-25.79 257.45,-19.23"/>
</a>
</g>
</g>
</g>
</svg>
