<?xml version="1.0" encoding="UTF-8" standalone="no"?>
<!DOCTYPE svg PUBLIC "-//W3C//DTD SVG 1.1//EN"
 "http://www.w3.org/Graphics/SVG/1.1/DTD/svg11.dtd">
<!-- Generated by graphviz version 2.43.0 (0)
 -->
<!-- Title: /home/kel/MyJob/SensorObserver/Widgets/Other/SmoothMotorControl.cpp Pages: 1 -->
<svg width="292pt" height="148pt"
 viewBox="0.00 0.00 292.00 148.00" xmlns="http://www.w3.org/2000/svg" xmlns:xlink="http://www.w3.org/1999/xlink">
<g id="graph0" class="graph" transform="scale(1 1) rotate(0) translate(4 144)">
<title>/home/kel/MyJob/SensorObserver/Widgets/Other/SmoothMotorControl.cpp</title>
<!-- Node1 -->
<g id="Node000001" class="node">
<title>Node1</title>
<g id="a_Node000001"><a xlink:title="Реализация плавного управления моторами.">
<polygon fill="#999999" stroke="#666666" points="245.5,-140 31.5,-140 31.5,-110 245.5,-110 245.5,-140"/>
<text text-anchor="start" x="39.5" y="-128" font-family="Helvetica,sans-Serif" font-size="10.00">/home/kel/MyJob/SensorObserver</text>
<text text-anchor="middle" x="138.5" y="-117" font-family="Helvetica,sans-Serif" font-size="10.00">/Widgets/Other/SmoothMotorControl.cpp</text>
</a>
</g>
</g>
<!-- Node2 -->
<g id="Node000002" class="node">
<title>Node2</title>
<g id="a_Node000002"><a xlink:href="SmoothMotorControl_8h.html" target="_top" xlink:title="Виджет плавного управления моторами.">
<polygon fill="white" stroke="#666666" points="127,-74 0,-74 0,-55 127,-55 127,-74"/>
<text text-anchor="middle" x="63.5" y="-62" font-family="Helvetica,sans-Serif" font-size="10.00">SmoothMotorControl.h</text>
</a>
</g>
</g>
<!-- Node1&#45;&gt;Node2 -->
<g id="edge1_Node000001_Node000002" class="edge">
<title>Node1&#45;&gt;Node2</title>
<g id="a_edge1_Node000001_Node000002"><a xlink:title=" ">
<path fill="none" stroke="#63b8ff" d="M120.34,-109.84C109.01,-101 94.44,-89.63 82.88,-80.62"/>
<polygon fill="#63b8ff" stroke="#63b8ff" points="84.78,-77.66 74.74,-74.27 80.47,-83.18 84.78,-77.66"/>
</a>
</g>
</g>
<!-- Node4 -->
<g id="Node000004" class="node">
<title>Node4</title>
<g id="a_Node000004"><a xlink:href="ValueIncrementer_8h.html" target="_top" xlink:title="Таймер‑инкрементатор значения для тестов/демо.">
<polygon fill="white" stroke="#666666" points="284,-74 145,-74 145,-55 284,-55 284,-74"/>
<text text-anchor="middle" x="214.5" y="-62" font-family="Helvetica,sans-Serif" font-size="10.00">Tools/ValueIncrementer.h</text>
</a>
</g>
</g>
<!-- Node1&#45;&gt;Node4 -->
<g id="edge3_Node000001_Node000004" class="edge">
<title>Node1&#45;&gt;Node4</title>
<g id="a_edge3_Node000001_Node000004"><a xlink:title=" ">
<path fill="none" stroke="#63b8ff" d="M156.9,-109.84C168.38,-101 183.15,-89.63 194.86,-80.62"/>
<polygon fill="#63b8ff" stroke="#63b8ff" points="197.32,-83.14 203.11,-74.27 193.05,-77.59 197.32,-83.14"/>
</a>
</g>
</g>
<!-- Node3 -->
<g id="Node000003" class="node">
<title>Node3</title>
<g id="a_Node000003"><a xlink:href="Client_8h.html" target="_top" xlink:title="Интерфейс TCP‑клиента для связи с дроном.">
<polygon fill="white" stroke="#666666" points="115.5,-19 11.5,-19 11.5,0 115.5,0 115.5,-19"/>
<text text-anchor="middle" x="63.5" y="-7" font-family="Helvetica,sans-Serif" font-size="10.00">Exchange/Client.h</text>
</a>
</g>
</g>
<!-- Node2&#45;&gt;Node3 -->
<g id="edge2_Node000002_Node000003" class="edge">
<title>Node2&#45;&gt;Node3</title>
<g id="a_edge2_Node000002_Node000003"><a xlink:title=" ">
<path fill="none" stroke="#63b8ff" d="M63.5,-54.75C63.5,-47.8 63.5,-37.85 63.5,-29.13"/>
<polygon fill="#63b8ff" stroke="#63b8ff" points="67,-29.09 63.5,-19.09 60,-29.09 67,-29.09"/>
</a>
</g>
</g>
</g>
</svg>
