<?xml version="1.0" encoding="UTF-8" standalone="no"?>
<!DOCTYPE svg PUBLIC "-//W3C//DTD SVG 1.1//EN"
 "http://www.w3.org/Graphics/SVG/1.1/DTD/svg11.dtd">
<!-- Generated by graphviz version 2.43.0 (0)
 -->
<!-- Title: /home/kel/MyJob/SensorObserver/Data/Frames/Containers/VoltageRegulators/VoltageRegulators.h Pages: 1 -->
<svg width="241pt" height="170pt"
 viewBox="0.00 0.00 241.00 170.00" xmlns="http://www.w3.org/2000/svg" xmlns:xlink="http://www.w3.org/1999/xlink">
<g id="graph0" class="graph" transform="scale(1 1) rotate(0) translate(4 166)">
<title>/home/kel/MyJob/SensorObserver/Data/Frames/Containers/VoltageRegulators/VoltageRegulators.h</title>
<!-- Node1 -->
<g id="Node000001" class="node">
<title>Node1</title>
<g id="a_Node000001"><a xlink:title="Протокол чтения датчиков питания (регуляторы напряжения).">
<polygon fill="#999999" stroke="#666666" points="230,-162 0,-162 0,-121 230,-121 230,-162"/>
<text text-anchor="start" x="8" y="-150" font-family="Helvetica,sans-Serif" font-size="10.00">/home/kel/MyJob/SensorObserver</text>
<text text-anchor="start" x="8" y="-139" font-family="Helvetica,sans-Serif" font-size="10.00">/Data/Frames/Containers/VoltageRegulators</text>
<text text-anchor="middle" x="115" y="-128" font-family="Helvetica,sans-Serif" font-size="10.00">/VoltageRegulators.h</text>
</a>
</g>
</g>
<!-- Node2 -->
<g id="Node000002" class="node">
<title>Node2</title>
<g id="a_Node000002"><a xlink:href="Base_8h.html" target="_top" xlink:title="Базовый интерфейс протокола фрейма.">
<polygon fill="white" stroke="#666666" points="182,-85 48,-85 48,-55 182,-55 182,-85"/>
<text text-anchor="start" x="56" y="-73" font-family="Helvetica,sans-Serif" font-size="10.00">Data/Frames/Containers</text>
<text text-anchor="middle" x="115" y="-62" font-family="Helvetica,sans-Serif" font-size="10.00">/Base.h</text>
</a>
</g>
</g>
<!-- Node1&#45;&gt;Node2 -->
<g id="edge1_Node000001_Node000002" class="edge">
<title>Node1&#45;&gt;Node2</title>
<g id="a_edge1_Node000001_Node000002"><a xlink:title=" ">
<path fill="none" stroke="#63b8ff" d="M115,-120.77C115,-112.85 115,-103.63 115,-95.3"/>
<polygon fill="#63b8ff" stroke="#63b8ff" points="118.5,-95.04 115,-85.04 111.5,-95.04 118.5,-95.04"/>
</a>
</g>
</g>
<!-- Node3 -->
<g id="Node000003" class="node">
<title>Node3</title>
<g id="a_Node000003"><a xlink:href="Sensors_8h.html" target="_top" xlink:title="Структуры описания сенсора: пределы, раскраска, настройки и данные.">
<polygon fill="white" stroke="#666666" points="91,-19 27,-19 27,0 91,0 91,-19"/>
<text text-anchor="middle" x="59" y="-7" font-family="Helvetica,sans-Serif" font-size="10.00">Sensors.h</text>
</a>
</g>
</g>
<!-- Node2&#45;&gt;Node3 -->
<g id="edge2_Node000002_Node000003" class="edge">
<title>Node2&#45;&gt;Node3</title>
<g id="a_edge2_Node000002_Node000003"><a xlink:title=" ">
<path fill="none" stroke="#63b8ff" d="M101.44,-54.84C93.32,-46.35 82.95,-35.52 74.5,-26.69"/>
<polygon fill="#63b8ff" stroke="#63b8ff" points="76.83,-24.07 67.39,-19.27 71.78,-28.91 76.83,-24.07"/>
</a>
</g>
</g>
<!-- Node4 -->
<g id="Node000004" class="node">
<title>Node4</title>
<g id="a_Node000004"><a xlink:href="CommonTypes_8h.html" target="_top" xlink:title="Общие типы&#45;алиасы имён сенсоров и кадров.">
<polygon fill="white" stroke="#666666" points="233,-19 109,-19 109,0 233,0 233,-19"/>
<text text-anchor="middle" x="171" y="-7" font-family="Helvetica,sans-Serif" font-size="10.00">Data/CommonTypes.h</text>
</a>
</g>
</g>
<!-- Node2&#45;&gt;Node4 -->
<g id="edge3_Node000002_Node000004" class="edge">
<title>Node2&#45;&gt;Node4</title>
<g id="a_edge3_Node000002_Node000004"><a xlink:title=" ">
<path fill="none" stroke="#63b8ff" d="M128.56,-54.84C136.68,-46.35 147.05,-35.52 155.5,-26.69"/>
<polygon fill="#63b8ff" stroke="#63b8ff" points="158.22,-28.91 162.61,-19.27 153.17,-24.07 158.22,-28.91"/>
</a>
</g>
</g>
</g>
</svg>
